<svg width="26" height="26" viewBox="0 0 26 26" fill="none" xmlns="http://www.w3.org/2000/svg">
<g clip-path="url(#clip0_164_692)">
<path d="M4.33806 6.95117L0.825195 3.43831L2.35726 1.90625L5.87012 5.41911H22.382C22.9803 5.41911 23.4653 5.90414 23.4653 6.50244C23.4653 6.60787 23.4499 6.71275 23.4197 6.81374L20.8197 15.4804C20.6822 15.9387 20.2604 16.2525 19.782 16.2525H6.50472V18.4192H18.4214V20.5858H5.42139C4.82308 20.5858 4.33806 20.1007 4.33806 19.5025V6.95117ZM6.50472 7.58578V14.0858H18.976L20.926 7.58578H6.50472ZM5.96306 24.9192C5.06559 24.9192 4.33806 24.1916 4.33806 23.2942C4.33806 22.3966 5.06559 21.6692 5.96306 21.6692C6.86052 21.6692 7.58806 22.3966 7.58806 23.2942C7.58806 24.1916 6.86052 24.9192 5.96306 24.9192ZM18.9631 24.9192C18.0656 24.9192 17.3381 24.1916 17.3381 23.2942C17.3381 22.3966 18.0656 21.6692 18.9631 21.6692C19.8605 21.6692 20.5881 22.3966 20.5881 23.2942C20.5881 24.1916 19.8605 24.9192 18.9631 24.9192Z" fill="#4E5969"/>
</g>
<defs>
<clipPath id="clip0_164_692">
<rect width="26" height="26" fill="white"/>
</clipPath>
</defs>
</svg>
