<svg width="26" height="26" viewBox="0 0 26 26" fill="none" xmlns="http://www.w3.org/2000/svg">
<g clip-path="url(#clip0_164_685)">
<path d="M21.5998 8.66732H22.7502C23.9468 8.66732 24.9168 9.63737 24.9168 10.834V15.1673C24.9168 16.364 23.9468 17.334 22.7502 17.334H21.5998C21.0667 21.6091 17.4197 24.9173 13.0002 24.9173V22.7507C16.59 22.7507 19.5002 19.8405 19.5002 16.2507V9.75065C19.5002 6.1608 16.59 3.25065 13.0002 3.25065C9.41031 3.25065 6.50016 6.1608 6.50016 9.75065V17.334H3.25016C2.05355 17.334 1.0835 16.364 1.0835 15.1673V10.834C1.0835 9.63737 2.05355 8.66732 3.25016 8.66732H4.40054C4.93365 4.39215 8.58057 1.08398 13.0002 1.08398C17.4197 1.08398 21.0667 4.39215 21.5998 8.66732ZM3.25016 10.834V15.1673H4.3335V10.834H3.25016ZM21.6668 10.834V15.1673H22.7502V10.834H21.6668ZM8.40622 17.101L9.55471 15.2634C10.5536 15.889 11.7346 16.2507 13.0002 16.2507C14.2657 16.2507 15.4468 15.889 16.4456 15.2634L17.5941 17.101C16.2623 17.9351 14.6876 18.4173 13.0002 18.4173C11.3128 18.4173 9.73805 17.9351 8.40622 17.101Z" fill="#4E5969"/>
</g>
<defs>
<clipPath id="clip0_164_685">
<rect width="26" height="26" fill="white"/>
</clipPath>
</defs>
</svg>
