<svg width="26" height="26" viewBox="0 0 26 26" fill="none" xmlns="http://www.w3.org/2000/svg">
<g clip-path="url(#clip0_164_699)">
<path d="M21.6667 23.8327H4.33333C3.73503 23.8327 3.25 23.3477 3.25 22.7493V3.24935C3.25 2.65105 3.73503 2.16602 4.33333 2.16602H21.6667C22.265 2.16602 22.75 2.65105 22.75 3.24935V22.7493C22.75 23.3477 22.265 23.8327 21.6667 23.8327ZM20.5833 21.666V4.33268H5.41667V21.666H20.5833ZM7.58333 6.49935H11.9167V10.8327H7.58333V6.49935ZM7.58333 12.9993H18.4167V15.166H7.58333V12.9993ZM7.58333 17.3327H18.4167V19.4993H7.58333V17.3327ZM14.0833 7.58268H18.4167V9.74935H14.0833V7.58268Z" fill="#4E5969"/>
</g>
<defs>
<clipPath id="clip0_164_699">
<rect width="26" height="26" fill="white"/>
</clipPath>
</defs>
</svg>
