<svg width="32" height="32" viewBox="0 0 32 32" fill="none" xmlns="http://www.w3.org/2000/svg">
<g clip-path="url(#clip0_62_13000)">
<path d="M26.6667 2.6665C27.4031 2.6665 28 3.26346 28 3.99984V9.00917L25.3333 11.6758V5.33317H6.66667V26.6665H25.3333V22.9892L28 20.3225V27.9998C28 28.7362 27.4031 29.3332 26.6667 29.3332H5.33333C4.59696 29.3332 4 28.7362 4 27.9998V3.99984C4 3.26346 4.59696 2.6665 5.33333 2.6665H26.6667ZM29.0376 11.7433L30.9232 13.6289L20.5523 23.9998L18.6639 23.997L18.6667 22.1142L29.0376 11.7433ZM17.3333 15.9998V18.6665H10.6667V15.9998H17.3333ZM21.3333 10.6665V13.3332H10.6667V10.6665H21.3333Z" fill="#1D2129"/>
</g>
<defs>
<clipPath id="clip0_62_13000">
<rect width="32" height="32" fill="white"/>
</clipPath>
</defs>
</svg>
