<svg width="32" height="32" viewBox="0 0 32 32" fill="none" xmlns="http://www.w3.org/2000/svg">
<g clip-path="url(#clip0_62_13003)">
<path d="M29.3399 9.33285H30.6732V22.6662H29.3399V26.6662C29.3399 27.4026 28.743 27.9995 28.0066 27.9995H4.00655C3.27018 27.9995 2.67322 27.4026 2.67322 26.6662V5.33285C2.67322 4.59646 3.27018 3.99951 4.00655 3.99951H28.0066C28.743 3.99951 29.3399 4.59646 29.3399 5.33285V9.33285ZM26.6732 22.6662H18.6732C14.9914 22.6662 12.0066 19.6814 12.0066 15.9995C12.0066 12.3176 14.9914 9.33285 18.6732 9.33285H26.6732V6.66618H5.33988V25.3329H26.6732V22.6662ZM28.0066 19.9995V11.9995H18.6732C16.464 11.9995 14.6732 13.7903 14.6732 15.9995C14.6732 18.2086 16.464 19.9995 18.6732 19.9995H28.0066ZM18.6732 14.6662H22.6732V17.3329H18.6732V14.6662Z" fill="#1D2129"/>
</g>
<defs>
<clipPath id="clip0_62_13003">
<rect width="32" height="32" fill="white"/>
</clipPath>
</defs>
</svg>
