<svg width="32" height="32" viewBox="0 0 32 32" fill="none" xmlns="http://www.w3.org/2000/svg">
<g clip-path="url(#clip0_62_13006)">
<path d="M11.9528 23.9998C11.6293 26.2613 9.68436 27.9998 7.33337 27.9998C4.98239 27.9998 3.03745 26.2613 2.71396 23.9998H1.33337V7.99984C1.33337 7.26346 1.93033 6.6665 2.66671 6.6665H21.3334C22.0698 6.6665 22.6667 7.26346 22.6667 7.99984V10.6665H26.6667L30.6667 16.0741V23.9998H27.9528C27.6292 26.2613 25.6843 27.9998 23.3334 27.9998C20.9824 27.9998 19.0375 26.2613 18.7139 23.9998H11.9528ZM20 9.33317H4.00004V20.0672C4.84705 19.2028 6.02759 18.6665 7.33337 18.6665C9.19497 18.6665 10.802 19.7565 11.5509 21.3332H19.1158C19.3394 20.8625 19.6395 20.435 20 20.0672V9.33317ZM22.6667 17.3332H28V16.9532L25.3223 13.3332H22.6667V17.3332ZM23.3334 25.3332C24.2042 25.3332 24.945 24.7766 25.2195 23.9998C25.2932 23.7913 25.3334 23.5669 25.3334 23.3332C25.3334 22.2286 24.4379 21.3332 23.3334 21.3332C22.2288 21.3332 21.3334 22.2286 21.3334 23.3332C21.3334 23.5669 21.3735 23.7913 21.4472 23.9998C21.7218 24.7766 22.4626 25.3332 23.3334 25.3332ZM9.33337 23.3332C9.33337 22.2286 8.43795 21.3332 7.33337 21.3332C6.2288 21.3332 5.33337 22.2286 5.33337 23.3332C5.33337 23.5669 5.37348 23.7913 5.44717 23.9998C5.72173 24.7766 6.46256 25.3332 7.33337 25.3332C8.20419 25.3332 8.94501 24.7766 9.21957 23.9998C9.29327 23.7913 9.33337 23.5669 9.33337 23.3332Z" fill="#1D2129"/>
</g>
<defs>
<clipPath id="clip0_62_13006">
<rect width="32" height="32" fill="white"/>
</clipPath>
</defs>
</svg>
