<svg width="32" height="32" viewBox="0 0 32 32" fill="none" xmlns="http://www.w3.org/2000/svg">
<g clip-path="url(#clip0_62_13018)">
<path d="M29.3333 22.6694C29.332 26.4973 26.6421 29.6966 23.0496 30.482L22.1989 27.93C23.8042 27.668 25.1686 26.6893 25.9532 25.3332H22.6666C21.1938 25.3332 20 24.1393 20 22.6665V17.3332C20 15.8604 21.1938 14.6665 22.6666 14.6665H26.5841C25.928 9.40476 21.4394 5.33317 16 5.33317C10.5605 5.33317 6.07195 9.40476 5.41581 14.6665H9.33329C10.8061 14.6665 12 15.8604 12 17.3332V22.6665C12 24.1393 10.8061 25.3332 9.33329 25.3332H5.33329C3.86053 25.3332 2.66663 24.1393 2.66663 22.6665V15.9998C2.66663 8.63604 8.63616 2.6665 16 2.6665C23.3637 2.6665 29.3333 8.63604 29.3333 15.9998V17.3314V17.3332V22.6665V22.6694ZM26.6666 22.6665V17.3332H22.6666V22.6665H26.6666ZM5.33329 17.3332V22.6665H9.33329V17.3332H5.33329Z" fill="#1D2129"/>
</g>
<defs>
<clipPath id="clip0_62_13018">
<rect width="32" height="32" fill="white"/>
</clipPath>
</defs>
</svg>
