<svg width="32" height="32" viewBox="0 0 32 32" fill="none" xmlns="http://www.w3.org/2000/svg">
<g clip-path="url(#clip0_62_13012)">
<path d="M16 1.3335L26.9559 3.76814C27.566 3.90371 28 4.44479 28 5.06972V18.3854C28 21.0602 26.6632 23.558 24.4376 25.0418L16 30.6668L7.5624 25.0418C5.33681 23.558 4 21.0602 4 18.3854V5.06972C4 4.44479 4.43404 3.90371 5.04409 3.76814L16 1.3335ZM16 4.06522L6.66667 6.13928V18.3854C6.66667 20.1686 7.55787 21.8338 9.0416 22.823L16 27.4619L22.9584 22.823C24.4421 21.8338 25.3333 20.1686 25.3333 18.3854V6.13928L16 4.06522ZM21.9365 10.9626L23.8221 12.8482L15.3368 21.3335L9.67999 15.6767L11.5656 13.791L15.3359 17.5614L21.9365 10.9626Z" fill="#1D2129"/>
</g>
<defs>
<clipPath id="clip0_62_13012">
<rect width="32" height="32" fill="white"/>
</clipPath>
</defs>
</svg>
