<svg width="32" height="32" viewBox="0 0 32 32" fill="none" xmlns="http://www.w3.org/2000/svg">
<g clip-path="url(#clip0_62_13009)">
<path d="M15.9999 2.76807L16.6068 3.07831C18.9611 4.28183 20.9771 6.05071 22.4764 8.20623C23.7136 7.61861 25.0384 7.18488 26.4257 6.93003L28 6.64087V17.333C28 23.9603 22.6275 29.3333 16 29.3333C9.37259 29.3333 4 23.9606 4 17.3333V6.64087L5.57421 6.93003C6.96153 7.18487 8.28627 7.61856 9.52337 8.20612C11.0227 6.05065 13.0387 4.2818 15.3929 3.07831L15.9999 2.76807ZM11.8368 9.55331C13.4764 10.7019 14.8905 12.1501 16 13.8191C17.1096 12.1502 18.524 10.7018 20.1631 9.55345C19.0603 8.02117 17.6403 6.73223 15.9999 5.78313C14.3596 6.73219 12.9396 8.02108 11.8368 9.55331ZM14.5324 16.5783C13.3576 14.2935 11.5412 12.3909 9.32149 11.1096C8.48893 10.629 7.59987 10.236 6.66667 9.94296V17.3333C6.66667 21.7198 9.69281 25.3995 13.7713 26.3989C13.4849 25.2005 13.3333 23.9505 13.3333 22.6663C13.3333 20.5106 13.7597 18.4547 14.5324 16.5783ZM16.6041 26.6473C21.4772 26.3359 25.3333 22.2847 25.3333 17.333V9.94296C24.4 10.236 23.5109 10.6291 22.6784 11.1097C18.6836 13.4155 16 17.7283 16 22.6663C16 24.0546 16.2117 25.3914 16.6041 26.6473Z" fill="#1D2129"/>
</g>
<defs>
<clipPath id="clip0_62_13009">
<rect width="32" height="32" fill="white"/>
</clipPath>
</defs>
</svg>
