<svg width="32" height="32" viewBox="0 0 32 32" fill="none" xmlns="http://www.w3.org/2000/svg">
<g clip-path="url(#clip0_62_13015)">
<path d="M25.3333 10.6665H28C28.7364 10.6665 29.3333 11.2635 29.3333 11.9998V27.9998C29.3333 28.7362 28.7364 29.3332 28 29.3332H17.3333C16.5969 29.3332 16 28.7362 16 27.9998V26.6665H5.33333C4.59696 26.6665 4 26.0696 4 25.3332V3.99984C4 3.26346 4.59696 2.6665 5.33333 2.6665H24C24.7364 2.6665 25.3333 3.26346 25.3333 3.99984V10.6665ZM22.6667 10.6665V5.33317H6.66667V23.9998H16V11.9998C16 11.2635 16.5969 10.6665 17.3333 10.6665H22.6667ZM18.6667 13.3332V26.6665H26.6667V13.3332H18.6667Z" fill="#1D2129"/>
</g>
<defs>
<clipPath id="clip0_62_13015">
<rect width="32" height="32" fill="white"/>
</clipPath>
</defs>
</svg>
