<svg width="20" height="20" viewBox="0 0 20 20" fill="none" xmlns="http://www.w3.org/2000/svg">
<g opacity="0.5">
<path d="M9.1665 1.6665C13.3065 1.6665 16.6665 5.0265 16.6665 9.1665C16.6665 13.3065 13.3065 16.6665 9.1665 16.6665C5.0265 16.6665 1.6665 13.3065 1.6665 9.1665C1.6665 5.0265 5.0265 1.6665 9.1665 1.6665ZM9.1665 14.9998C12.3894 14.9998 14.9998 12.3894 14.9998 9.1665C14.9998 5.94359 12.3894 3.33317 9.1665 3.33317C5.94359 3.33317 3.33317 5.94359 3.33317 9.1665C3.33317 12.3894 5.94359 14.9998 9.1665 14.9998ZM16.2376 15.0591L18.5946 17.4161L17.4161 18.5946L15.0591 16.2376L16.2376 15.0591Z" fill="#1D2129"/>
</g>
</svg>
