<svg width="124" height="124" viewBox="0 0 124 124" fill="none" xmlns="http://www.w3.org/2000/svg">
<rect width="124" height="124" fill="white"/>
<g clip-path="url(#clip0_62_13492)">
<path d="M75.66 28.8904C69.2334 33.9617 55.4276 34.5529 45.3136 28.5182C35.1997 22.4835 16.5022 23.263 11.4398 34.358C6.37731 45.4529 17.6693 56.3574 13.5813 64.3387C9.49318 72.3199 -4.13081 83.6119 5.21023 97.2425C14.5513 110.873 26.417 107.396 33.5552 106.027C47.6544 103.325 65.3467 125.404 85.2528 108.729C96.7222 99.119 113.804 115.776 120.46 95.0967C125.952 78.0349 106.109 71.7287 112.089 60.2506C118.439 48.0433 117.226 33.5763 110.337 26.5716C103.917 20.0443 86.7593 20.1297 75.66 28.8904Z" fill="url(#paint0_linear_62_13492)"/>
<path d="M50.7466 63.4253H106.34L87.8414 93.7125H44.5806L50.7466 63.4253Z" fill="url(#paint1_linear_62_13492)"/>
<path d="M14.1197 62.911C14.1197 62.911 14.0825 62.8146 14.0321 62.911C13.5811 63.8306 9.48424 73.7913 9.16017 81.4814C9.16017 81.4814 8.477 85.8979 14.1964 85.8388C18.9786 85.7906 18.8516 81.7179 18.834 80.3472C18.7749 74.7876 14.1197 62.911 14.1197 62.911Z" fill="url(#paint2_linear_62_13492)"/>
<path d="M13.9883 90.739C13.944 90.7384 13.9016 90.7204 13.8705 90.6888C13.8394 90.6573 13.8219 90.6147 13.8219 90.5704V65.5887C13.8192 65.5651 13.8215 65.5411 13.8287 65.5185C13.8359 65.4959 13.8478 65.475 13.8636 65.4573C13.8794 65.4395 13.8988 65.4253 13.9205 65.4156C13.9422 65.4059 13.9656 65.4009 13.9894 65.4009C14.0132 65.4009 14.0367 65.4059 14.0583 65.4156C14.08 65.4253 14.0994 65.4395 14.1152 65.4573C14.131 65.475 14.1429 65.4959 14.1501 65.5185C14.1573 65.5411 14.1596 65.5651 14.1569 65.5887V90.5682C14.1572 90.5905 14.1531 90.6127 14.1447 90.6334C14.1364 90.6541 14.124 90.6729 14.1083 90.6888C14.0926 90.7047 14.0739 90.7173 14.0533 90.7259C14.0327 90.7345 14.0106 90.739 13.9883 90.739Z" fill="url(#paint3_linear_62_13492)"/>
<path d="M98.0163 55.7484C98.0163 55.7484 97.9922 55.6871 97.9615 55.7484C97.6703 56.3396 95.034 62.7553 94.8238 67.7039C94.8238 67.7039 94.3858 70.5505 98.071 70.5111C101.15 70.4826 101.069 67.8594 101.058 66.9748C101.014 63.3969 98.0163 55.7484 98.0163 55.7484Z" fill="url(#paint4_linear_62_13492)"/>
<path d="M97.9315 73.666C97.9174 73.666 97.9035 73.6632 97.8905 73.6578C97.8774 73.6524 97.8656 73.6445 97.8556 73.6345C97.8457 73.6246 97.8378 73.6127 97.8324 73.5997C97.827 73.5867 97.8242 73.5728 97.8242 73.5587V57.4735C97.8242 57.4594 97.827 57.4455 97.8324 57.4324C97.8378 57.4194 97.8457 57.4076 97.8556 57.3976C97.8656 57.3877 97.8774 57.3798 97.8905 57.3744C97.9035 57.369 97.9174 57.3662 97.9315 57.3662C97.9598 57.3668 97.9868 57.3783 98.0068 57.3983C98.0268 57.4183 98.0382 57.4452 98.0388 57.4735V73.5587C98.0391 73.5728 98.0365 73.5869 98.0312 73.6001C98.026 73.6132 98.0181 73.6252 98.008 73.6352C97.998 73.6452 97.9861 73.6531 97.9729 73.6584C97.9598 73.6637 97.9457 73.6662 97.9315 73.666Z" fill="url(#paint5_linear_62_13492)"/>
<path d="M107.43 86.5239C109.019 86.5239 110.307 85.2358 110.307 83.6467C110.307 82.0577 109.019 80.7695 107.43 80.7695C105.841 80.7695 104.553 82.0577 104.553 83.6467C104.553 85.2358 105.841 86.5239 107.43 86.5239Z" fill="url(#paint6_linear_62_13492)"/>
<path d="M107.441 90.7544C107.417 90.7544 107.395 90.7452 107.379 90.7288C107.362 90.7123 107.353 90.6901 107.353 90.6668V81.5864C107.353 81.5629 107.362 81.5404 107.379 81.5236C107.395 81.5069 107.417 81.4972 107.441 81.4966C107.464 81.4971 107.487 81.5068 107.503 81.5235C107.52 81.5402 107.53 81.5627 107.53 81.5864V90.6734C107.529 90.6959 107.518 90.7168 107.502 90.7319C107.485 90.747 107.463 90.755 107.441 90.7544Z" fill="url(#paint7_linear_62_13492)"/>
<path d="M69.2088 20.6397C72.4231 20.6397 75.0288 18.0339 75.0288 14.8196C75.0288 11.6053 72.4231 8.99951 69.2088 8.99951C65.9944 8.99951 63.3887 11.6053 63.3887 14.8196C63.3887 18.0339 65.9944 20.6397 69.2088 20.6397Z" fill="url(#paint8_linear_62_13492)"/>
<path d="M72.5242 17.9945H66.7326C66.5459 17.1142 66.0626 16.3248 65.3634 15.7583C64.6642 15.1919 63.7917 14.8828 62.8919 14.8828C61.9921 14.8828 61.1196 15.1919 60.4204 15.7583C59.7213 16.3248 59.2379 17.1142 59.0513 17.9945H57.5338C57.1054 17.9947 56.6813 18.0795 56.2856 18.2439C55.89 18.4083 55.5307 18.6492 55.2283 18.9526C54.9258 19.2561 54.6862 19.6162 54.5231 20.0124C54.36 20.4085 54.2767 20.833 54.2778 21.2614C54.2778 22.125 54.6209 22.9531 55.2315 23.5638C55.8421 24.1744 56.6703 24.5174 57.5338 24.5174H72.522C73.3855 24.5174 74.2137 24.1744 74.8243 23.5638C75.435 22.9531 75.778 22.125 75.778 21.2614C75.7797 20.833 75.6968 20.4085 75.5341 20.0122C75.3714 19.6159 75.132 19.2557 74.8296 18.9521C74.5273 18.6486 74.168 18.4077 73.7724 18.2434C73.3768 18.079 72.9526 17.9945 72.5242 17.9945Z" fill="url(#paint9_linear_62_13492)"/>
<path d="M29.9111 93.8745C29.9111 93.8745 29.0922 94.9321 27.2507 94.1044C26.2751 94.6748 25.2239 95.1045 24.1282 95.381C23.2524 95.5781 23.202 96.5525 23.34 96.813C24.5158 96.7101 27.912 96.951 30.222 96.1758C30.0403 94.5424 29.9111 93.8745 29.9111 93.8745Z" fill="url(#paint10_linear_62_13492)"/>
<path d="M30.387 96.7432L30.2797 96.0425C30.2797 96.0425 27.6215 96.614 23.1262 96.2614C23.1064 96.4424 23.0772 96.6222 23.0386 96.8001C25.4823 97.0598 27.9476 97.0407 30.387 96.7432Z" fill="#D4E4FF"/>
<path d="M33.326 74.7397C33.326 74.7397 27.195 81.6525 27.149 84.9873C27.0746 89.3535 27.2213 94.4597 27.2213 94.4597L29.8861 94.4838C29.8861 94.4838 30.5999 86.0493 31.1999 85.3092C31.7998 84.5691 35.8879 78.8847 35.8879 78.8847L33.326 74.7397Z" fill="url(#paint11_linear_62_13492)"/>
<path d="M29.9394 56.5674C29.9394 56.5674 31.8838 56.1295 32.9567 57.4783C33.7428 57.3053 36.7338 57.4192 36.3222 61.1065C35.9631 62.6502 35.9149 62.9042 35.9149 62.9042L30.0029 63.9071L26.8257 57.3907L29.9394 56.5674Z" fill="url(#paint12_linear_62_13492)"/>
<path d="M29.9535 60.9555C29.9535 60.9555 32.6555 59.1425 34.2365 60.0183C35.8174 60.8942 37.8319 64.1173 37.8319 64.1173L35.6028 65.0545L37.7246 68.9258L38.318 74.3539L31.4622 76.8195L27.6653 69.2236L24.694 69.3725C24.694 69.3725 22.6883 63.8984 25.6071 63.4232C26.2137 63.2212 26.8062 62.9791 27.3807 62.6985C27.6394 62.9597 27.978 63.1268 28.3427 63.1732C28.7074 63.2196 29.0771 63.1427 29.393 62.9546C30.5272 62.289 29.9535 60.9555 29.9535 60.9555Z" fill="url(#paint13_linear_62_13492)"/>
<path d="M28.8631 59.4625L30.7769 61.8448C30.8212 61.898 30.8455 61.965 30.8455 62.0342C30.8455 62.1035 30.8212 62.1705 30.7769 62.2237C30.3807 62.6762 29.905 63.0525 29.3733 63.3338C28.7904 63.5801 28.1496 63.656 27.5252 63.5528C27.4615 63.5442 27.4023 63.5149 27.3568 63.4694C27.3113 63.4239 27.282 63.3647 27.2734 63.301L26.8552 60.1172C26.8465 60.0461 26.8639 59.9743 26.9042 59.9151C26.9445 59.8559 27.0049 59.8134 27.0742 59.7953L28.5697 59.3574C28.6235 59.3456 28.6796 59.3492 28.7315 59.3678C28.7834 59.3864 28.829 59.4192 28.8631 59.4625Z" fill="url(#paint14_linear_62_13492)"/>
<path d="M33.4784 59.7991C32.4996 59.9327 31.453 60.675 32.3288 62.5865C33.2047 64.4981 36.5286 66.6002 36.3775 67.9687C36.2264 69.3372 35.5301 71.5663 35.0352 72.8691C35.5121 73.4519 36.0844 73.9494 36.7278 74.3406C36.7278 74.3406 39.3313 71.1415 40.0364 68.8664C40.7414 66.5914 38.2562 63.3923 36.3359 61.1873C34.8885 59.532 33.4784 59.7991 33.4784 59.7991Z" fill="url(#paint15_linear_62_13492)"/>
<path d="M24.6653 64.1197C25.3682 63.4278 26.601 63.0577 27.571 64.9211C28.541 66.7845 28.1644 70.6952 29.3402 71.4178C30.5161 72.1404 32.7014 72.9505 34.0327 73.3622C34.2017 74.0963 34.2432 74.854 34.1553 75.6022C34.1553 75.6022 30.0322 75.6986 27.8053 74.8599C25.5784 74.0213 24.5734 70.0909 24.0106 67.2268C23.5858 65.0656 24.6653 64.1197 24.6653 64.1197Z" fill="url(#paint16_linear_62_13492)"/>
<path d="M27.0978 59.7685C27.0978 59.7685 27.3999 61.9165 28.0568 62.8646C28.7137 63.8127 29.2195 65.3959 28.1444 66.4819C27.0693 67.568 25.4599 67.4103 24.3848 66.3374C23.3097 65.2645 23.29 64.1259 23.9469 62.7551C23.3754 62.0545 23.5615 60.1801 24.8994 58.8904C26.3467 57.9116 27.0978 59.7685 27.0978 59.7685Z" fill="url(#paint17_linear_62_13492)"/>
<path d="M28.276 56.2409C28.276 56.2409 29.6117 56.4599 30.0738 57.4562C30.5358 58.4525 29.6511 58.6627 29.6511 58.6627C29.6511 58.6627 30.1307 60.248 28.5892 61.0713C27.0477 61.8946 26.0623 60.4319 26.0623 60.4319C26.0623 60.4319 25.3244 60.9158 24.8646 60.0202C24.4047 59.1247 24.4967 57.5788 25.0091 56.9022C25.5215 56.2256 27.4155 55.8139 28.276 56.2409Z" fill="url(#paint18_linear_62_13492)"/>
<path d="M27.1265 56.4253C27.1265 56.4253 27.8798 57.1742 28.7425 56.9442C29.6052 56.7143 29.8702 57.0822 30.0563 57.4566C30.1663 57.6894 30.2232 57.9437 30.2227 58.2011C30.5336 57.7632 30.8402 56.9202 29.7191 55.5735C28.6374 54.2597 27.1857 54.0824 25.7208 54.829C24.326 55.1093 23.3122 57.6603 24.5187 59.7361C24.5653 59.4174 24.7199 59.1245 24.9566 58.9062C25.0735 58.7466 25.1537 58.5632 25.1916 58.369C25.2294 58.1748 25.224 57.9747 25.1756 57.7829C25.5303 57.6865 26.728 57.2946 27.1265 56.4253Z" fill="url(#paint19_linear_62_13492)"/>
<path d="M79.5706 99.0442H43.2488C42.0593 99.0454 40.8813 98.8121 39.782 98.3577C38.6828 97.9033 37.6838 97.2367 36.8424 96.396C36.0009 95.5554 35.3333 94.5571 34.8779 93.4583C34.4224 92.3595 34.188 91.1817 34.188 89.9922V39.8186C34.188 37.4179 35.1417 35.1155 36.8393 33.4179C38.5368 31.7203 40.8393 30.7666 43.24 30.7666H79.5706C81.9714 30.7666 84.2738 31.7203 85.9714 33.4179C87.669 35.1155 88.6227 37.4179 88.6227 39.8186V89.9922C88.6227 92.393 87.669 94.6954 85.9714 96.3929C84.2738 98.0905 81.9714 99.0442 79.5706 99.0442Z" fill="url(#paint20_linear_62_13492)"/>
<path d="M79.6101 99.0446H41.4138C39.4974 99.0446 37.6595 98.2833 36.3044 96.9282C34.9493 95.5731 34.188 93.7352 34.188 91.8187V39.8409C34.1909 37.9264 34.9535 36.0912 36.3083 34.7385C37.663 33.3858 39.4993 32.626 41.4138 32.626H79.6101C80.5574 32.626 81.4955 32.8126 82.3708 33.1752C83.246 33.5378 84.0412 34.0693 84.711 34.7393C85.3808 35.4093 85.912 36.2047 86.2744 37.08C86.6367 37.9554 86.8231 38.8935 86.8228 39.8409V91.8297C86.8231 92.7771 86.6367 93.7152 86.2744 94.5905C85.912 95.4659 85.3808 96.2613 84.711 96.9313C84.0412 97.6012 83.246 98.1327 82.3708 98.4953C81.4955 98.858 80.5574 99.0446 79.6101 99.0446Z" fill="url(#paint21_linear_62_13492)"/>
<path d="M45.2522 49.896H58.539C60.1637 49.896 61.4862 48.4639 61.4862 46.7013C61.4862 44.9386 60.1725 43.5044 58.539 43.5044H45.2522C43.6275 43.5044 42.3027 44.9386 42.3027 46.7013C42.3027 48.4639 43.6275 49.896 45.2522 49.896Z" fill="url(#paint22_linear_62_13492)"/>
<path d="M45.1101 49.896H57.7553C58.4993 49.896 59.2127 49.6005 59.7387 49.0745C60.2648 48.5484 60.5603 47.835 60.5603 47.0911C60.5603 46.3472 60.2648 45.6337 59.7387 45.1077C59.2127 44.5817 58.4993 44.2861 57.7553 44.2861H45.1101C44.3662 44.2861 43.6527 44.5817 43.1267 45.1077C42.6007 45.6337 42.3052 46.3472 42.3052 47.0911C42.3052 47.835 42.6007 48.5484 43.1267 49.0745C43.6527 49.6005 44.3662 49.896 45.1101 49.896Z" fill="white"/>
<path d="M45.3179 62.6459H76.7459C78.4078 62.6459 79.7611 61.1416 79.7611 59.2935C79.7611 57.4454 78.41 55.939 76.7459 55.939H45.3179C43.6559 55.939 42.3027 57.4433 42.3027 59.2935C42.3027 61.1438 43.6559 62.6459 45.3179 62.6459Z" fill="url(#paint23_linear_62_13492)"/>
<path d="M45.3179 75.3988H76.7459C78.4078 75.3988 79.7611 73.8945 79.7611 72.0443C79.7611 70.194 78.41 68.6919 76.7459 68.6919H45.3179C43.6559 68.6919 42.3027 70.1962 42.3027 72.0443C42.3027 73.8923 43.6559 75.3988 45.3179 75.3988Z" fill="url(#paint24_linear_62_13492)"/>
<path d="M45.3179 88.1249H76.7459C78.4078 88.1249 79.7611 86.6206 79.7611 84.7725C79.7611 82.9244 78.41 81.418 76.7459 81.418H45.3179C43.6559 81.418 42.3027 82.9223 42.3027 84.7725C42.3027 86.6228 43.6559 88.1249 45.3179 88.1249Z" fill="url(#paint25_linear_62_13492)"/>
<path d="M45.246 62.6459H75.9011C76.2939 62.6566 76.6848 62.5885 77.0509 62.4456C77.4169 62.3027 77.7506 62.0879 78.0322 61.8139C78.3138 61.5399 78.5376 61.2122 78.6905 60.8502C78.8433 60.4882 78.922 60.0993 78.922 59.7063C78.922 59.3134 78.8433 58.9244 78.6905 58.5625C78.5376 58.2005 78.3138 57.8728 78.0322 57.5988C77.7506 57.3247 77.4169 57.1099 77.0509 56.967C76.6848 56.8241 76.2939 56.756 75.9011 56.7667H45.246C44.8532 56.756 44.4623 56.8241 44.0963 56.967C43.7303 57.1099 43.3966 57.3247 43.115 57.5988C42.8334 57.8728 42.6095 58.2005 42.4567 58.5625C42.3038 58.9244 42.2251 59.3134 42.2251 59.7063C42.2251 60.0993 42.3038 60.4882 42.4567 60.8502C42.6095 61.2122 42.8334 61.5399 43.115 61.8139C43.3966 62.0879 43.7303 62.3027 44.0963 62.4456C44.4623 62.5885 44.8532 62.6566 45.246 62.6459Z" fill="white"/>
<path d="M75.9817 69.6904H45.1602C44.785 69.6904 44.4134 69.7643 44.0667 69.9079C43.72 70.0515 43.405 70.262 43.1397 70.5274C42.8743 70.7927 42.6639 71.1077 42.5202 71.4544C42.3766 71.8011 42.3027 72.1727 42.3027 72.5479C42.3027 72.9232 42.3766 73.2947 42.5202 73.6414C42.6639 73.9881 42.8743 74.3031 43.1397 74.5685C43.405 74.8338 43.72 75.0443 44.0667 75.1879C44.4134 75.3315 44.785 75.4054 45.1602 75.4054H75.9817C76.7396 75.4054 77.4664 75.1044 78.0023 74.5685C78.5382 74.0326 78.8392 73.3058 78.8392 72.5479C78.8392 71.7901 78.5382 71.0632 78.0023 70.5274C77.4664 69.9915 76.7396 69.6904 75.9817 69.6904Z" fill="white"/>
<path d="M76.0095 82.5151H45.1354C44.7648 82.5151 44.3978 82.5881 44.0553 82.73C43.7129 82.8718 43.4018 83.0797 43.1397 83.3418C42.8776 83.6039 42.6697 83.9151 42.5278 84.2575C42.386 84.5999 42.313 84.9669 42.313 85.3376C42.313 85.7082 42.386 86.0753 42.5278 86.4177C42.6697 86.7601 42.8776 87.0713 43.1397 87.3334C43.4018 87.5955 43.7129 87.8034 44.0553 87.9452C44.3978 88.0871 44.7648 88.1601 45.1354 88.1601H76.0095C76.3801 88.1601 76.7472 88.0871 77.0896 87.9452C77.432 87.8034 77.7432 87.5955 78.0053 87.3334C78.2674 87.0713 78.4753 86.7601 78.6171 86.4177C78.7589 86.0753 78.8319 85.7082 78.8319 85.3376C78.8319 84.9669 78.7589 84.5999 78.6171 84.2575C78.4753 83.9151 78.2674 83.6039 78.0053 83.3418C77.7432 83.0797 77.432 82.8718 77.0896 82.73C76.7472 82.5881 76.3801 82.5151 76.0095 82.5151Z" fill="white"/>
<path d="M99.9545 73.7214L91.9689 65.8956C91.6642 65.5962 91.2905 65.3763 90.8808 65.2552C90.4711 65.1342 90.0379 65.1158 89.6194 65.2015L88.1874 63.7629C90.7116 60.771 91.9875 56.9223 91.7503 53.015C91.5131 49.1077 89.781 45.4415 86.9133 42.777C84.0456 40.1124 80.2624 38.6539 76.3482 38.7039C72.434 38.7539 68.6892 40.3085 65.8905 43.0454C63.0918 45.7824 61.4539 49.4915 61.3165 53.4036C61.1792 57.3157 62.5529 61.1306 65.1527 64.0571C67.7526 66.9835 71.3791 68.797 75.2802 69.1214C79.1813 69.4458 83.0575 68.2562 86.105 65.7993L87.5874 67.2861C87.5113 67.7024 87.5383 68.1311 87.6662 68.5346C87.7941 68.938 88.0189 69.304 88.3209 69.6005L95.584 77.827C96.0701 78.3061 96.7254 78.5744 97.408 78.5737C98.0802 78.5737 99.2188 78.4511 100.086 77.4986C100.547 76.9696 100.79 76.2853 100.765 75.5841C100.741 74.8829 100.451 74.2171 99.9545 73.7214ZM76.5603 63.9753C74.5772 63.9758 72.6385 63.3881 70.9894 62.2866C69.3402 61.1852 68.0548 59.6194 67.2956 57.7874C66.5364 55.9553 66.3375 53.9393 66.7241 51.9942C67.1107 50.0491 68.0655 48.2624 69.4676 46.86C70.8698 45.4575 72.6563 44.5024 74.6013 44.1153C76.5463 43.7283 78.5623 43.9267 80.3946 44.6855C82.2268 45.4443 83.7928 46.7294 84.8946 48.3783C85.9964 50.0272 86.5845 51.9658 86.5845 53.9489C86.5816 56.6068 85.5247 59.1551 83.6454 61.0347C81.7662 62.9143 79.2182 63.9718 76.5603 63.9753Z" fill="url(#paint26_linear_62_13492)"/>
<path d="M99.0629 74.2122L90.6086 65.8915C90.3137 65.6013 89.9519 65.3882 89.5551 65.271C89.1584 65.1537 88.7388 65.136 88.3336 65.2193L86.9585 63.8332C89.4122 60.9316 90.6547 57.1968 90.4285 53.4035C90.2023 49.6102 88.5245 46.0496 85.7434 43.4602C82.9622 40.8708 79.291 39.4513 75.4912 39.4961C71.6915 39.541 68.0548 41.0468 65.3355 43.7012C62.6163 46.3556 61.0231 49.9548 60.8865 53.7524C60.7499 57.5499 62.0803 61.2543 64.6019 64.0972C67.1234 66.9401 70.6425 68.7033 74.4292 69.0211C78.2159 69.3389 81.9796 68.1868 84.9396 65.8039L86.376 67.2447C86.3026 67.6481 86.329 68.0634 86.4531 68.4543C86.5771 68.8451 86.795 69.1997 87.0877 69.4869L95.5419 77.8076C95.7777 78.0395 96.0568 78.2227 96.3634 78.3467C96.67 78.4707 96.998 78.5331 97.3288 78.5304C97.6595 78.5276 97.9864 78.4598 98.2909 78.3307C98.5954 78.2016 98.8714 78.0138 99.1034 77.778C99.3353 77.5422 99.5185 77.2631 99.6425 76.9565C99.7665 76.6499 99.8289 76.3219 99.8262 75.9912C99.8234 75.6604 99.7556 75.3335 99.6265 75.029C99.4974 74.7245 99.3096 74.4484 99.0738 74.2165L99.0629 74.2122ZM75.6818 64.0391C73.7607 64.0391 71.8827 63.4694 70.2854 62.4021C68.688 61.3348 67.4431 59.8178 66.7079 58.0429C65.9727 56.268 65.7804 54.315 66.1551 52.4308C66.5299 50.5466 67.455 48.8159 68.8135 47.4574C70.1719 46.099 71.9026 45.1739 73.7868 44.7991C75.671 44.4243 77.624 44.6167 79.3989 45.3519C81.1738 46.0871 82.6908 47.332 83.7581 48.9294C84.8254 50.5267 85.3951 52.4047 85.3951 54.3258C85.3922 56.901 84.3679 59.3699 82.5469 61.1909C80.7259 63.0119 78.257 64.0362 75.6818 64.0391Z" fill="white"/>
</g>
<defs>
<linearGradient id="paint0_linear_62_13492" x1="61.1129" y1="20.3643" x2="61.1129" y2="112.805" gradientUnits="userSpaceOnUse">
<stop stop-color="#F4F2FF"/>
<stop offset="1" stop-color="#E1EEFF"/>
</linearGradient>
<linearGradient id="paint1_linear_62_13492" x1="56.3656" y1="98.7347" x2="84.7341" y2="49.5995" gradientUnits="userSpaceOnUse">
<stop offset="0.13" stop-color="#B4C9FF"/>
<stop offset="0.91" stop-color="#EAF0FF"/>
</linearGradient>
<linearGradient id="paint2_linear_62_13492" x1="13.6983" y1="83.831" x2="13.6983" y2="61.0041" gradientUnits="userSpaceOnUse">
<stop offset="0.23" stop-color="#D0DCFF"/>
<stop offset="0.79" stop-color="#ECF1FF"/>
</linearGradient>
<linearGradient id="paint3_linear_62_13492" x1="13.6982" y1="63.5383" x2="13.6982" y2="88.69" gradientUnits="userSpaceOnUse">
<stop stop-color="#ECF1FF"/>
<stop offset="0.82" stop-color="#B6C9FF"/>
</linearGradient>
<linearGradient id="paint4_linear_62_13492" x1="97.0948" y1="68.604" x2="97.0948" y2="53.9047" gradientUnits="userSpaceOnUse">
<stop offset="0.23" stop-color="#D0DCFF"/>
<stop offset="0.79" stop-color="#ECF1FF"/>
</linearGradient>
<linearGradient id="paint5_linear_62_13492" x1="97.0921" y1="55.5368" x2="97.0921" y2="71.7288" gradientUnits="userSpaceOnUse">
<stop stop-color="#ECF1FF"/>
<stop offset="0.82" stop-color="#B6C9FF"/>
</linearGradient>
<linearGradient id="paint6_linear_62_13492" x1="106.529" y1="84.5031" x2="106.529" y2="78.7884" gradientUnits="userSpaceOnUse">
<stop offset="0.23" stop-color="#D0DCFF"/>
<stop offset="0.79" stop-color="#ECF1FF"/>
</linearGradient>
<linearGradient id="paint7_linear_62_13492" x1="106.539" y1="79.5091" x2="106.539" y2="88.7067" gradientUnits="userSpaceOnUse">
<stop stop-color="#ECF1FF"/>
<stop offset="0.82" stop-color="#B6C9FF"/>
</linearGradient>
<linearGradient id="paint8_linear_62_13492" x1="71.45" y1="8.25924" x2="65.6671" y2="18.2773" gradientUnits="userSpaceOnUse">
<stop stop-color="#FFDBC5"/>
<stop offset="1" stop-color="#FFBB69"/>
</linearGradient>
<linearGradient id="paint9_linear_62_13492" x1="64.4044" y1="13.3297" x2="64.4044" y2="22.8918" gradientUnits="userSpaceOnUse">
<stop stop-color="#F9FAFF"/>
<stop offset="1" stop-color="#E5EDFF"/>
</linearGradient>
<linearGradient id="paint10_linear_62_13492" x1="22.5714" y1="102.976" x2="22.4598" y2="100.236" gradientUnits="userSpaceOnUse">
<stop stop-color="#4673FF"/>
<stop offset="0.65" stop-color="#6A94FF"/>
</linearGradient>
<linearGradient id="paint11_linear_62_13492" x1="40.1488" y1="82.6048" x2="48.8439" y2="82.6048" gradientUnits="userSpaceOnUse">
<stop stop-color="#4456BC"/>
<stop offset="1" stop-color="#2938A6"/>
</linearGradient>
<linearGradient id="paint12_linear_62_13492" x1="46.9684" y1="60.1452" x2="43.0618" y2="52.1673" gradientUnits="userSpaceOnUse">
<stop stop-color="#4F5CC1"/>
<stop offset="1" stop-color="#2741AD"/>
</linearGradient>
<linearGradient id="paint13_linear_62_13492" x1="48.4134" y1="71.9863" x2="41.52" y2="57.909" gradientUnits="userSpaceOnUse">
<stop stop-color="#FAD9B3"/>
<stop offset="1" stop-color="#FFB371"/>
</linearGradient>
<linearGradient id="paint14_linear_62_13492" x1="40.3676" y1="55.9722" x2="42.2024" y2="59.7191" gradientUnits="userSpaceOnUse">
<stop stop-color="#F4AEDD"/>
<stop offset="1" stop-color="#FAD1FF"/>
</linearGradient>
<linearGradient id="paint15_linear_62_13492" x1="33.4782" y1="81.7023" x2="26.9828" y2="68.5504" gradientUnits="userSpaceOnUse">
<stop stop-color="#FAD9B3"/>
<stop offset="1" stop-color="#FFA964"/>
</linearGradient>
<linearGradient id="paint16_linear_62_13492" x1="45.5885" y1="81.0982" x2="39.1532" y2="68.0376" gradientUnits="userSpaceOnUse">
<stop stop-color="#FAD9B3"/>
<stop offset="1" stop-color="#FFA964"/>
</linearGradient>
<linearGradient id="paint17_linear_62_13492" x1="40.3621" y1="63.3099" x2="36.6897" y2="55.8102" gradientUnits="userSpaceOnUse">
<stop stop-color="#4F5CC1"/>
<stop offset="1" stop-color="#2741AD"/>
</linearGradient>
<linearGradient id="paint18_linear_62_13492" x1="39.4318" y1="52.7131" x2="41.9791" y2="57.52" gradientUnits="userSpaceOnUse">
<stop stop-color="#F4B9E9"/>
<stop offset="0.65" stop-color="#FAD1FF"/>
</linearGradient>
<linearGradient id="paint19_linear_62_13492" x1="40.8176" y1="55.7146" x2="38.606" y2="51.198" gradientUnits="userSpaceOnUse">
<stop stop-color="#4F5CC1"/>
<stop offset="1" stop-color="#2741AD"/>
</linearGradient>
<linearGradient id="paint20_linear_62_13492" x1="88.6509" y1="90.8683" x2="32.9674" y2="35.1847" gradientUnits="userSpaceOnUse">
<stop offset="0.15" stop-color="#9FB6FF"/>
<stop offset="1" stop-color="#D5E1FF"/>
</linearGradient>
<linearGradient id="paint21_linear_62_13492" x1="87.3829" y1="91.4194" x2="32.4465" y2="36.4831" gradientUnits="userSpaceOnUse">
<stop stop-color="#B6CAFF"/>
<stop offset="0.89" stop-color="#DFE8FF"/>
</linearGradient>
<linearGradient id="paint22_linear_62_13492" x1="56.816" y1="50.4005" x2="45.8976" y2="39.4821" gradientUnits="userSpaceOnUse">
<stop offset="0.15" stop-color="#9FB6FF"/>
<stop offset="1" stop-color="#D5E1FF"/>
</linearGradient>
<linearGradient id="paint23_linear_62_13492" x1="70.4785" y1="67.499" x2="50.3908" y2="47.4096" gradientUnits="userSpaceOnUse">
<stop offset="0.15" stop-color="#9FB6FF"/>
<stop offset="1" stop-color="#D5E1FF"/>
</linearGradient>
<linearGradient id="paint24_linear_62_13492" x1="70.4785" y1="80.1635" x2="50.3908" y2="60.0741" gradientUnits="userSpaceOnUse">
<stop offset="0.15" stop-color="#9FB6FF"/>
<stop offset="1" stop-color="#D5E1FF"/>
</linearGradient>
<linearGradient id="paint25_linear_62_13492" x1="70.4785" y1="92.8074" x2="50.3908" y2="72.718" gradientUnits="userSpaceOnUse">
<stop offset="0.15" stop-color="#9FB6FF"/>
<stop offset="1" stop-color="#D5E1FF"/>
</linearGradient>
<linearGradient id="paint26_linear_62_13492" x1="99.2469" y1="75.5271" x2="65.1705" y2="41.4507" gradientUnits="userSpaceOnUse">
<stop offset="0.15" stop-color="#AFC8FF"/>
<stop offset="1" stop-color="#B6CDFF"/>
</linearGradient>
<clipPath id="clip0_62_13492">
<rect width="119.43" height="106.012" fill="white" transform="translate(2 9)"/>
</clipPath>
</defs>
</svg>
