<svg xmlns="http://www.w3.org/2000/svg" pointer-events="none" class="leaflet-zoom-animated" width="1950" height="1267" viewBox="-229 -102 1950 1267" style="transform: translate3d(-229px, -102px, 0px);"><g><path class="leaflet-interactive" stroke="black" stroke-opacity="1" stroke-width="2" stroke-linecap="round" stroke-linejoin="round" fill="#fff" fill-opacity="0.2" fill-rule="evenodd" d="M859 474L860 473L858 470L862 470L862 468L860 467L874 454L878 449L880 442L881 444L885 443L886 448L893 451L892 452L895 455L901 452L901 448L907 441L910 441L911 443L916 445L922 452L932 449L934 451L936 449L939 450L940 453L953 444L960 446L960 448L963 443L965 432L968 430L968 423L966 417L969 415L964 414L963 410L967 405L964 401L960 402L959 397L952 395L947 397L947 400L941 408L928 410L925 413L921 413L918 410L917 411L909 404L907 400L903 399L910 397L913 390L910 389L910 387L914 384L909 381L909 378L907 377L904 379L900 372L900 363L905 362L909 358L911 358L911 356L908 354L904 357L900 353L899 355L892 355L890 358L888 356L880 358L880 356L876 356L876 354L874 353L871 363L875 374L874 376L876 378L875 380L866 387L861 383L856 385L855 388L847 396L847 398L849 400L850 399L853 404L856 403L852 408L851 417L845 423L843 423L838 430L839 433L834 434L829 444L825 446L823 445L819 448L816 445L812 453L814 464L811 473L813 474L812 478L819 491L823 507L822 511L819 512L818 522L813 522L812 520L809 524L803 527L802 531L799 532L794 528L796 522L792 520L781 525L778 529L771 531L761 542L757 539L752 540L750 538L746 543L745 540L742 538L743 535L738 530L731 530L729 527L729 524L733 524L732 518L723 510L719 510L716 504L720 503L722 498L720 497L721 494L723 494L724 492L720 490L720 493L716 494L716 492L714 491L717 486L711 481L708 481L708 478L700 473L702 460L696 460L694 458L692 449L687 440L684 441L685 437L682 429L680 430L681 426L677 425L675 419L672 416L673 412L670 407L667 408L662 416L655 411L653 413L651 420L649 420L648 422L646 421L646 412L640 411L637 408L639 406L634 400L632 400L628 391L629 388L637 386L639 383L636 381L638 378L631 375L630 369L627 368L625 365L626 363L609 349L610 348L608 340L606 342L602 342L601 349L596 352L597 356L592 359L592 362L588 362L588 366L590 369L588 369L590 373L587 379L589 380L587 386L588 391L582 385L581 381L577 379L577 376L573 372L574 359L570 351L571 348L569 346L571 332L569 323L569 312L565 313L564 315L561 313L560 315L560 319L563 323L563 325L557 330L557 337L560 338L560 341L555 343L551 342L551 334L547 328L543 331L538 331L540 334L540 344L542 348L541 350L536 352L538 356L538 366L541 367L546 377L543 381L544 385L540 387L538 390L534 388L525 394L523 393L522 384L517 374L516 373L511 376L515 384L509 387L509 390L507 390L506 403L508 406L510 406L511 410L509 413L511 415L512 420L514 421L512 422L516 427L518 437L523 437L526 426L528 428L534 428L536 432L541 432L543 436L542 444L543 448L545 449L545 457L543 459L544 469L547 471L547 473L545 474L545 485L547 489L546 495L548 502L546 506L546 519L542 524L541 529L544 530L544 537L540 540L540 536L536 536L535 538L537 548L540 549L543 554L543 557L539 561L532 558L527 565L527 569L524 571L524 575L522 575L518 579L514 574L509 573L510 577L506 581L508 589L504 590L504 594L498 597L494 602L492 603L490 599L487 598L485 606L480 614L480 624L485 628L483 630L479 629L469 636L470 648L468 657L477 656L479 662L476 667L482 668L483 670L480 672L480 675L482 677L474 685L474 688L470 689L470 691L467 692L475 699L477 697L479 698L487 690L491 690L491 687L512 680L521 681L533 679L536 682L542 681L544 679L547 680L554 678L556 681L550 687L541 691L543 692L543 700L541 702L548 704L551 707L550 709L552 711L552 714L555 715L555 717L549 721L551 726L556 726L555 728L557 734L554 735L558 737L558 740L556 741L555 746L556 745L566 747L565 750L569 752L574 751L579 753L580 751L585 749L590 753L595 753L595 758L598 764L596 766L591 763L590 764L592 769L587 773L587 775L582 777L585 781L587 788L585 791L587 793L578 801L580 803L578 805L577 811L573 816L574 817L572 817L580 821L588 821L592 819L595 821L598 820L599 822L600 820L602 822L604 821L608 826L611 823L616 826L618 826L618 823L625 824L624 826L626 829L623 838L625 848L629 849L628 851L633 849L637 851L637 853L633 857L637 864L638 862L640 862L641 865L647 864L649 861L654 860L658 866L664 866L674 861L678 855L684 850L692 848L699 844L698 849L702 857L700 857L700 859L704 859L705 863L703 865L703 868L700 869L703 874L707 877L705 881L710 885L725 880L730 881L730 885L734 884L739 888L742 883L745 883L745 880L740 878L738 874L739 864L741 862L739 860L739 857L742 858L744 855L740 852L739 847L741 840L738 839L735 832L733 833L730 830L731 826L728 820L730 819L726 812L727 809L730 809L733 805L734 795L740 793L744 796L746 801L749 801L749 798L754 798L758 796L764 798L763 799L765 800L767 798L773 799L772 796L781 784L780 781L787 774L792 778L794 777L798 780L800 779L804 783L812 787L811 788L815 793L824 797L824 794L831 789L830 786L832 783L838 781L840 772L848 776L848 780L854 787L857 782L856 779L861 773L876 789L882 793L885 790L887 777L891 772L901 770L901 777L905 777L908 780L921 769L924 772L924 770L931 771L931 769L939 763L936 751L939 750L941 747L943 746L945 748L946 745L948 745L954 740L964 740L965 736L969 731L971 735L975 739L977 738L983 746L982 742L986 737L991 734L992 736L993 733L991 731L997 726L1000 726L1001 723L1006 722L1012 724L1012 727L1017 724L1020 721L1020 719L1022 719L1020 716L1023 708L1021 703L1025 701L1025 697L1018 688L1019 687L1016 685L1016 682L1013 680L1006 681L1006 685L1004 684L1000 687L999 683L990 686L989 679L983 680L981 687L975 686L969 680L967 680L967 683L965 684L960 679L960 677L963 677L964 674L959 669L961 665L958 662L956 662L955 659L952 657L947 659L933 656L932 658L930 657L930 666L923 662L924 660L921 659L915 643L919 635L919 631L930 618L928 614L924 613L928 612L932 602L936 606L937 605L937 599L931 599L929 596L925 597L925 592L920 589L920 580L913 582L912 584L912 578L909 575L905 575L904 572L905 563L908 565L912 559L911 553L914 547L913 541L916 541L918 539L917 534L919 528L922 523L928 520L927 515L925 515L925 512L920 504L915 505L911 495L906 502L892 500L888 505L889 509L887 510L872 508L868 501L869 493L866 493L865 489L866 485L869 484L870 479L865 471L863 471L862 473z" id="云南省"/><path class="leaflet-interactive" stroke="#333" stroke-opacity="1" stroke-width="1" stroke-linecap="round" stroke-linejoin="round" stroke-dasharray="1,6" fill="#eee" fill-opacity="0.5" fill-rule="evenodd" d="M827 652L835 652L836 645L838 646L838 642L847 648L851 649L851 651L849 652L850 653L860 645L859 644L861 642L860 641L863 635L861 626L857 625L857 628L855 627L853 630L848 625L850 619L846 614L851 610L850 605L846 604L846 607L841 606L841 608L838 604L839 603L836 602L837 599L839 599L838 597L840 594L837 593L839 589L842 587L843 583L847 583L846 577L848 576L848 578L851 578L855 576L851 573L855 559L850 559L850 556L846 558L842 556L840 558L838 554L839 543L835 535L836 534L833 531L832 532L829 528L826 528L827 525L823 507L822 511L819 512L818 522L813 522L812 520L809 524L803 527L802 531L799 532L794 528L796 522L792 520L781 525L778 529L771 531L771 535L775 540L778 541L776 557L780 559L778 566L780 568L779 572L783 577L784 576L786 585L781 591L778 591L779 596L782 600L779 604L779 609L777 613L770 615L768 611L766 614L768 618L771 619L770 624L772 623L772 625L774 626L774 646L773 649L769 652L769 654L775 659L775 661L777 660L780 654L781 653L782 655L784 652L787 653L788 651L790 652L792 650L794 651L793 653L798 653L800 656L808 652L806 649L810 638L809 635L811 636L814 634L814 628L820 625L820 623L822 627L821 634L825 635L823 638L822 648L827 648z" id="昆明市"/><path class="leaflet-interactive" stroke="#333" stroke-opacity="1" stroke-width="1" stroke-linecap="round" stroke-linejoin="round" stroke-dasharray="1,6" fill="#eee" fill-opacity="0.5" fill-rule="evenodd" d="M844 493L844 495L843 493L841 495L839 493L835 494L831 502L827 500L827 502L824 502L823 509L827 525L826 528L829 528L831 532L832 531L836 534L835 535L839 542L838 554L840 558L841 556L845 557L844 558L849 556L850 559L855 559L855 562L853 564L854 566L851 571L851 573L855 576L851 578L848 578L848 576L846 577L847 583L843 583L842 587L839 589L837 593L839 594L839 599L837 599L836 602L839 603L838 604L841 608L841 606L846 607L846 605L850 605L849 607L851 610L846 613L850 619L848 625L853 630L855 627L857 628L857 625L861 626L863 635L862 636L868 634L866 638L869 639L870 637L872 637L877 641L881 643L882 642L884 644L882 647L886 651L885 656L888 659L895 656L899 660L897 662L898 663L911 661L911 658L918 658L918 656L920 656L915 643L919 635L919 631L930 618L928 614L924 613L928 612L932 602L936 606L937 605L937 599L931 599L929 596L925 597L925 592L920 589L920 580L913 582L912 584L912 578L909 575L905 575L904 572L905 563L908 565L912 559L911 553L914 547L913 541L916 541L918 539L917 534L919 528L922 523L928 520L927 515L925 515L925 512L920 504L915 505L911 495L906 502L892 500L888 505L889 509L887 510L872 508L868 501L869 493L866 493L865 489L866 485L869 484L870 479L865 471L858 475L846 475L848 476L848 478L846 482L845 481L846 483L843 491L845 492zM845 493L845 494z" id="曲靖市"/><path class="leaflet-interactive" stroke="#333" stroke-opacity="1" stroke-width="1" stroke-linecap="round" stroke-linejoin="round" stroke-dasharray="1,6" fill="#eee" fill-opacity="0.5" fill-rule="evenodd" d="M770 624L766 624L766 622L763 621L760 627L756 627L755 631L752 634L749 643L752 647L748 648L752 656L756 655L755 659L757 661L753 669L744 671L744 667L742 666L742 668L734 662L728 671L724 673L722 672L720 662L716 659L715 663L709 668L713 674L713 677L716 679L717 685L725 694L721 700L717 700L717 705L719 708L721 705L725 704L727 707L725 710L728 710L731 714L735 711L737 713L734 715L736 719L738 719L737 721L738 723L740 723L742 728L739 731L744 732L744 734L747 736L749 733L764 736L767 728L769 730L776 729L778 722L770 710L765 710L765 706L767 705L764 700L766 697L772 695L773 693L770 688L777 685L774 683L779 682L783 685L787 684L788 686L795 685L797 688L796 692L798 695L803 687L809 685L810 689L812 689L816 684L821 686L825 682L829 673L828 667L825 664L826 660L824 659L827 652L827 648L822 648L822 643L825 635L821 635L822 627L820 623L820 625L814 628L814 634L811 636L809 635L810 638L807 644L807 652L804 655L803 654L800 656L798 653L795 654L792 650L790 652L788 651L787 653L784 652L782 655L781 653L778 657L778 660L775 661L775 659L768 652L774 646L774 626L772 625L772 623z" id="玉溪市"/><path class="leaflet-interactive" stroke="#333" stroke-opacity="1" stroke-width="1" stroke-linecap="round" stroke-linejoin="round" stroke-dasharray="1,6" fill="#eee" fill-opacity="0.5" fill-rule="evenodd" d="M555 572L554 578L547 578L547 569L545 565L546 563L544 562L545 558L543 557L539 561L532 558L527 565L527 569L524 571L524 575L522 575L518 579L514 574L509 573L510 577L506 581L508 589L504 590L505 597L510 600L509 608L515 612L512 617L514 623L518 621L521 625L531 625L534 630L533 632L530 631L525 634L527 637L527 641L524 642L529 647L528 649L531 650L537 647L542 648L545 654L542 657L544 661L544 674L542 675L543 680L553 679L556 675L559 675L567 671L568 672L576 664L579 657L582 657L585 663L585 671L589 672L593 670L594 666L600 663L603 656L606 657L604 647L607 644L609 644L609 641L614 639L615 636L612 633L616 630L614 628L618 624L616 622L620 618L629 614L629 610L625 611L622 604L617 605L615 610L607 614L597 608L595 609L580 592L581 587L584 589L585 585L583 582L576 579L572 581L570 584L568 584L566 582L566 577L562 578L563 573L557 573z" id="保山市"/><path class="leaflet-interactive" stroke="#333" stroke-opacity="1" stroke-width="1" stroke-linecap="round" stroke-linejoin="round" stroke-dasharray="1,6" fill="#eee" fill-opacity="0.5" fill-rule="evenodd" d="M823 507L824 508L824 502L827 502L827 500L831 502L833 501L835 494L845 494L845 492L843 491L846 483L845 481L846 482L848 478L848 476L846 475L858 475L860 473L858 470L862 470L862 468L860 467L874 454L878 449L880 442L881 444L885 443L886 448L893 451L892 452L895 455L901 452L901 448L907 441L910 441L911 443L916 445L922 452L932 449L934 451L936 449L939 450L940 453L953 444L960 446L960 448L965 437L965 432L968 430L968 423L966 417L969 415L964 414L963 410L967 405L966 403L964 401L960 402L959 397L952 395L947 397L947 400L939 409L928 410L925 413L921 413L918 410L917 411L909 404L907 400L903 399L910 397L913 390L910 389L910 387L914 384L909 381L909 378L907 377L904 379L900 372L900 363L907 361L909 358L911 358L911 356L908 354L904 357L900 353L899 355L892 355L890 358L888 356L880 358L880 356L876 356L876 354L874 353L871 363L875 374L874 376L876 378L875 380L866 387L861 383L856 385L855 388L847 396L847 398L849 400L850 399L853 404L856 403L852 408L851 417L845 423L843 423L838 430L839 433L834 434L829 444L825 446L823 445L819 448L816 445L812 453L814 464L811 473L813 474L813 481L819 491L822 506z" id="昭通市"/><path class="leaflet-interactive" stroke="#333" stroke-opacity="1" stroke-width="1" stroke-linecap="round" stroke-linejoin="round" stroke-dasharray="1,6" fill="#eee" fill-opacity="0.5" fill-rule="evenodd" d="M685 534L690 528L697 523L702 522L703 520L713 520L721 516L722 514L720 513L721 512L716 504L720 503L722 498L720 497L721 494L723 494L724 492L720 490L720 493L716 494L716 492L714 491L717 486L711 481L708 481L708 478L700 473L702 460L696 460L694 458L692 449L687 440L684 441L685 437L682 429L680 430L681 426L677 425L675 419L672 416L673 412L670 407L667 408L662 416L655 411L653 413L651 420L649 420L648 422L646 421L644 424L646 426L643 429L644 431L642 431L642 434L638 440L642 451L631 463L630 466L632 471L630 479L625 484L623 481L624 477L620 469L617 468L617 465L603 451L605 449L598 438L598 433L594 435L594 438L590 439L588 443L591 449L588 454L589 458L587 459L589 460L588 462L591 466L589 466L590 471L596 481L598 482L601 496L607 499L607 501L609 502L613 500L615 502L620 502L620 500L628 504L630 504L630 500L632 500L634 503L637 502L639 497L642 496L642 500L646 499L646 501L649 501L648 503L650 502L650 506L653 506L653 508L655 508L655 510L657 511L654 512L655 515L658 517L652 525L655 532L653 533L654 536L657 536L658 538L658 545L670 546L668 543L668 539L679 532L682 535L684 535z" id="丽江市"/><path class="leaflet-interactive" stroke="#333" stroke-opacity="1" stroke-width="1" stroke-linecap="round" stroke-linejoin="round" stroke-dasharray="1,6" fill="#eee" fill-opacity="0.5" fill-rule="evenodd" d="M709 668L702 664L696 657L685 635L683 637L678 637L668 630L667 636L663 639L659 636L655 637L652 640L654 641L662 655L659 658L659 682L654 684L652 683L650 685L653 694L652 697L649 699L649 706L655 712L650 716L645 714L639 716L637 724L633 729L634 732L632 734L632 741L629 743L619 741L614 745L605 741L602 745L603 748L601 747L595 751L595 758L598 764L596 766L591 763L590 764L592 769L587 773L587 775L582 777L585 781L587 788L585 791L587 793L578 801L580 803L578 805L577 811L573 816L574 817L572 817L573 818L580 821L588 821L592 819L595 821L598 820L599 822L600 820L602 822L604 821L608 826L611 823L618 826L618 823L626 823L626 820L631 817L632 811L636 812L640 808L649 811L652 805L651 800L653 798L655 799L661 796L665 797L667 794L669 794L669 792L673 792L675 788L682 787L683 791L685 792L693 787L697 790L704 791L711 791L713 789L720 787L724 800L725 802L727 802L726 805L733 805L734 795L740 793L744 796L746 801L749 801L749 798L754 798L758 796L764 798L763 799L765 800L767 798L773 799L772 796L776 790L773 786L765 785L760 782L759 778L755 773L750 771L748 773L742 767L745 765L747 757L753 757L753 759L756 759L759 756L758 753L760 752L753 746L751 748L744 746L744 741L748 738L744 732L739 731L739 729L742 728L740 723L738 723L737 721L738 719L736 719L734 716L737 713L735 711L731 714L728 710L725 710L727 707L726 704L722 705L719 708L717 705L717 700L721 700L725 694L717 685L716 679L713 677L711 671z" id="普洱市"/><path class="leaflet-interactive" stroke="#333" stroke-opacity="1" stroke-width="1" stroke-linecap="round" stroke-linejoin="round" stroke-dasharray="1,6" fill="#eee" fill-opacity="0.5" fill-rule="evenodd" d="M653 638L649 635L645 635L639 636L635 638L635 641L633 641L640 620L633 618L630 621L628 621L626 615L616 622L618 624L614 628L616 630L614 630L612 633L615 636L614 639L612 639L609 644L607 644L604 647L606 657L604 656L600 663L594 666L592 671L585 671L585 663L582 657L579 657L576 664L568 672L567 671L559 675L556 675L554 678L556 681L550 687L541 691L543 692L543 700L541 702L548 704L551 707L550 709L552 711L552 714L555 715L555 717L549 721L551 726L556 726L555 728L557 734L554 735L558 737L558 740L556 741L555 746L556 745L566 747L565 750L569 752L574 751L579 753L580 751L585 749L590 753L595 753L595 751L600 747L602 748L602 745L605 742L609 742L614 745L619 741L623 741L625 743L629 743L632 741L632 734L634 732L633 730L637 724L639 716L642 716L643 714L650 716L655 712L649 706L649 699L653 694L650 685L652 683L654 684L659 682L659 658L662 655L652 640z" id="临沧市"/><path class="leaflet-interactive" stroke="#333" stroke-opacity="1" stroke-width="1" stroke-linecap="round" stroke-linejoin="round" stroke-dasharray="1,6" fill="#eee" fill-opacity="0.5" fill-rule="evenodd" d="M770 624L771 620L770 618L768 618L766 614L768 611L768 613L770 614L777 613L779 609L779 604L782 600L779 596L778 591L783 590L786 585L784 576L783 577L779 572L780 568L778 566L780 559L776 557L778 542L772 537L770 533L761 542L757 539L752 540L750 538L746 543L745 540L742 538L743 535L738 530L731 530L729 524L733 524L732 518L723 510L720 511L720 513L722 514L721 516L713 520L703 520L702 522L699 522L690 528L685 534L685 542L687 543L685 547L686 549L687 548L688 553L685 555L687 556L684 559L688 563L687 565L689 564L687 568L688 571L690 571L691 578L688 578L687 584L693 589L693 593L690 594L690 599L685 600L680 598L679 604L678 603L675 607L675 614L677 617L673 619L675 622L674 629L676 631L674 631L678 637L683 637L685 635L696 657L702 664L709 668L709 666L715 663L716 659L720 661L720 665L724 673L728 671L733 662L742 668L742 666L744 667L743 671L749 671L755 667L757 662L755 659L756 655L753 656L751 653L750 654L750 650L748 648L752 647L749 643L752 640L752 634L756 629L755 627L759 627L763 623L763 621L766 622L766 624L769 624z" id="楚雄彝族自治州"/><path class="leaflet-interactive" stroke="#333" stroke-opacity="1" stroke-width="1" stroke-linecap="round" stroke-linejoin="round" stroke-dasharray="1,6" fill="#eee" fill-opacity="0.5" fill-rule="evenodd" d="M827 652L824 658L826 660L825 664L826 666L827 665L829 672L822 687L817 684L810 689L809 685L803 687L800 694L798 695L796 692L797 688L795 686L788 686L787 684L783 685L779 682L776 682L774 683L777 685L770 687L772 695L766 697L764 700L767 705L765 706L765 710L770 710L776 718L778 725L776 729L769 730L767 728L764 736L749 733L747 735L748 738L744 741L744 746L748 748L751 748L752 746L760 752L758 753L759 755L756 759L753 759L753 757L747 757L746 763L742 767L748 773L750 771L755 773L759 778L760 782L765 785L773 786L776 790L781 784L780 781L787 774L792 778L794 777L798 780L800 779L804 783L812 787L811 788L815 793L824 797L824 794L831 789L830 786L832 783L838 781L840 772L848 776L848 780L854 787L857 782L856 779L861 773L876 789L882 793L885 790L887 777L891 772L902 769L901 767L898 767L896 769L893 766L890 767L888 771L885 771L886 773L883 779L877 779L877 771L879 770L878 764L881 758L880 748L878 745L878 742L880 741L878 737L873 734L872 735L871 725L869 723L867 724L866 720L862 723L858 721L857 718L859 718L862 713L860 706L862 699L865 696L865 693L863 693L860 690L861 689L857 685L857 682L861 676L870 673L872 667L880 658L885 657L886 651L883 647L884 644L872 637L870 637L869 639L866 638L868 634L862 637L860 641L861 642L859 644L860 645L850 653L849 652L851 651L851 649L838 642L838 646L836 645L835 651L829 651zM823 686L822 685L822 687z" id="红河哈尼族彝族自治州"/><path class="leaflet-interactive" stroke="#333" stroke-opacity="1" stroke-width="1" stroke-linecap="round" stroke-linejoin="round" stroke-dasharray="1,6" fill="#eee" fill-opacity="0.5" fill-rule="evenodd" d="M920 655L918 656L918 658L914 657L911 658L911 661L902 663L898 663L897 662L899 660L895 656L888 659L882 657L875 663L870 673L861 676L857 682L857 685L861 689L860 690L863 693L865 693L865 696L862 698L860 706L862 713L859 718L857 718L858 721L862 723L865 720L867 721L867 723L871 724L870 725L872 728L872 735L873 734L878 737L880 741L878 742L878 745L880 748L881 762L878 764L879 770L877 773L877 778L879 780L884 778L886 773L885 771L888 771L892 766L894 768L895 767L895 769L901 767L901 777L905 777L908 780L921 769L924 772L924 770L931 771L931 769L939 763L936 751L939 750L941 747L943 746L945 748L946 745L948 745L954 740L964 740L965 736L969 731L971 735L975 739L977 738L983 746L982 742L986 737L991 734L992 736L993 733L991 731L997 726L1000 726L1001 723L1006 722L1012 724L1012 727L1017 724L1020 721L1020 719L1022 719L1020 716L1023 708L1021 703L1025 701L1025 697L1018 688L1019 687L1016 685L1016 682L1013 680L1006 681L1006 685L1004 684L1000 687L999 683L990 686L989 679L983 680L981 687L975 686L969 680L967 680L967 683L965 684L960 679L960 677L963 677L964 674L959 669L961 665L958 662L956 662L955 659L952 657L947 659L933 656L932 658L930 657L930 666L923 662L924 660L921 659z" id="文山壮族苗族自治州"/><path class="leaflet-interactive" stroke="#333" stroke-opacity="1" stroke-width="1" stroke-linecap="round" stroke-linejoin="round" stroke-dasharray="1,6" fill="#eee" fill-opacity="0.5" fill-rule="evenodd" d="M733 805L726 805L727 802L725 802L723 798L720 787L713 789L711 791L697 790L693 787L685 792L683 791L682 787L675 788L673 792L669 792L669 794L667 794L665 797L661 796L653 798L652 805L649 811L643 808L640 808L636 812L633 811L631 817L627 820L624 826L626 829L623 838L625 848L629 849L628 851L633 849L637 851L637 853L633 857L637 864L638 862L640 862L641 865L647 864L649 861L654 860L658 866L664 866L674 861L678 855L684 850L692 848L699 844L698 849L702 857L700 857L700 859L704 859L705 863L703 865L703 868L700 869L703 874L707 877L705 881L710 885L725 880L730 881L730 885L734 884L739 888L742 883L745 883L745 880L740 878L738 874L739 864L741 862L739 860L739 857L742 858L744 855L740 852L739 847L741 840L738 839L735 832L733 833L730 830L731 826L728 820L730 819L726 812L727 809L730 809L732 806z" id="西双版纳傣族自治州"/><path class="leaflet-interactive" stroke="#333" stroke-opacity="1" stroke-width="1" stroke-linecap="round" stroke-linejoin="round" stroke-dasharray="1,6" fill="#eee" fill-opacity="0.5" fill-rule="evenodd" d="M555 572L563 573L562 578L566 577L566 582L568 584L570 584L576 579L583 581L585 585L584 588L581 587L580 592L595 609L597 608L607 614L611 611L615 611L617 605L622 603L625 611L628 610L628 621L630 621L633 618L640 620L633 641L635 641L635 638L645 635L649 635L653 638L659 636L663 639L667 636L668 630L674 633L674 631L676 631L674 627L675 622L673 619L677 617L675 614L675 607L677 603L679 604L679 598L690 600L688 596L689 594L693 593L693 589L690 588L687 584L688 578L691 578L690 571L688 571L687 568L689 564L687 565L688 563L686 560L684 560L687 556L685 555L688 553L688 550L685 547L687 544L685 542L686 535L682 535L679 532L668 539L668 543L670 546L663 547L660 544L658 545L658 538L657 536L654 536L653 533L655 532L652 525L656 518L658 518L654 512L657 511L655 510L655 508L653 508L653 506L650 506L650 502L648 503L649 501L646 501L646 499L642 500L642 496L639 497L637 502L635 503L632 500L630 500L630 504L623 502L621 500L620 502L615 502L613 500L609 502L605 498L603 498L602 501L595 504L595 516L590 522L587 521L585 524L583 523L583 528L572 535L575 538L571 536L569 537L569 535L565 535L563 538L562 546L563 549L566 549L568 552L571 562L567 562L564 559L563 562L565 564L562 566L554 562L554 568z" id="大理白族自治州"/><path class="leaflet-interactive" stroke="#333" stroke-opacity="1" stroke-width="1" stroke-linecap="round" stroke-linejoin="round" stroke-dasharray="1,6" fill="#eee" fill-opacity="0.5" fill-rule="evenodd" d="M504 594L502 594L492 603L490 599L487 598L485 606L480 614L480 624L485 628L483 630L479 629L469 636L470 648L468 657L477 656L479 662L476 667L480 667L483 670L480 672L480 675L482 677L480 680L474 685L474 688L470 689L470 691L467 692L475 699L477 697L479 698L487 690L491 690L491 687L497 686L501 683L512 680L521 681L533 679L536 682L543 680L542 675L544 674L544 662L542 657L545 654L542 648L537 647L529 650L526 643L524 643L527 641L527 637L525 634L530 631L533 632L534 630L532 625L526 626L519 624L519 621L514 623L513 622L512 617L515 612L510 608L510 600L504 595z" id="德宏傣族景颇族自治州"/><path class="leaflet-interactive" stroke="#333" stroke-opacity="1" stroke-width="1" stroke-linecap="round" stroke-linejoin="round" stroke-dasharray="1,6" fill="#eee" fill-opacity="0.5" fill-rule="evenodd" d="M604 498L601 494L598 483L594 478L589 476L587 478L589 479L586 481L581 469L579 469L580 473L576 476L570 474L562 475L563 471L562 472L560 468L560 460L563 453L562 450L558 450L556 446L556 436L554 433L557 429L551 422L554 421L554 419L552 415L549 413L549 400L546 397L542 388L543 386L540 387L538 390L534 388L525 394L523 393L522 384L517 374L516 373L511 376L515 384L509 387L509 390L507 390L506 403L508 406L510 406L511 410L509 413L511 415L512 420L514 421L512 422L516 427L518 437L523 437L526 426L528 428L534 428L536 432L541 432L543 436L542 444L543 448L545 449L545 457L543 459L544 469L547 471L547 473L545 474L545 485L547 489L546 495L548 502L546 506L546 519L542 524L541 529L544 530L544 537L540 540L540 536L536 536L535 538L537 548L540 549L543 554L543 557L545 558L544 562L546 563L545 565L547 569L547 578L554 578L554 562L562 566L565 565L563 562L564 559L567 562L571 562L567 549L564 549L562 546L563 538L565 535L569 535L569 537L571 536L575 539L572 535L583 528L583 523L585 524L587 521L590 522L596 514L594 512L594 505L602 501L603 498z" id="怒江傈僳族自治州"/><path class="leaflet-interactive" stroke="#333" stroke-opacity="1" stroke-width="1" stroke-linecap="round" stroke-linejoin="round" stroke-dasharray="1,6" fill="#eee" fill-opacity="0.5" fill-rule="evenodd" d="M646 421L646 412L640 411L637 408L639 406L634 400L632 400L628 391L629 388L637 386L639 383L636 381L638 378L631 375L630 369L627 368L625 365L626 363L609 349L610 348L608 340L606 342L602 342L601 349L596 352L597 356L592 359L592 362L588 362L588 366L590 369L588 369L590 373L587 379L589 380L587 386L588 391L582 385L581 381L577 379L577 376L573 372L574 359L570 351L571 348L569 346L571 332L569 323L569 312L565 313L564 315L561 313L560 315L560 319L563 323L563 325L557 330L557 337L560 338L560 341L555 343L551 342L551 334L547 328L543 331L538 331L540 334L540 344L542 348L541 350L536 352L538 356L538 366L541 367L546 377L543 381L544 385L542 388L543 392L549 400L549 413L552 414L554 419L554 421L551 422L557 429L554 433L556 436L555 439L557 444L557 450L562 450L563 453L560 462L560 468L562 472L563 471L562 475L572 474L576 476L580 473L579 470L581 469L586 481L589 479L587 478L589 476L594 477L594 475L590 471L589 466L591 466L588 462L589 460L587 459L589 458L588 454L591 449L588 443L589 440L593 439L594 435L598 433L600 444L605 449L603 451L617 465L617 468L620 469L624 477L623 481L625 484L630 479L632 471L630 466L631 463L642 452L638 440L642 434L642 431L644 431L643 429L646 426L644 424L645 423z" id="迪庆藏族自治州"/></g></svg>